<svg xmlns="http://www.w3.org/2000/svg" viewBox="0 0 56.69 76.96"><defs><style>.cls-1{fill:#a71f24;}.cls-2,.cls-4,.cls-5{fill:none;}.cls-3{fill:#fff;}.cls-4{stroke:#fff;stroke-linecap:round;}.cls-4,.cls-5{stroke-miterlimit:10;}.cls-5{stroke:#231815;}.cls-6{fill:#231815;}</style></defs><g id="图层_2" data-name="图层 2"><g id="图层_1-2" data-name="图层 1"><circle class="cls-1" cx="28.35" cy="28.35" r="28.35"/><circle class="cls-2" cx="28.35" cy="28.35" r="26.33"/><circle class="cls-3" cx="28.35" cy="28.35" r="7.09"/><line class="cls-4" x1="28.35" y1="54.68" x2="28.35" y2="42.52"/><line class="cls-4" x1="51.15" y1="41.51" x2="40.62" y2="35.43"/><line class="cls-4" x1="51.15" y1="15.18" x2="40.62" y2="21.26"/><line class="cls-4" x1="28.35" y1="2.01" x2="28.35" y2="14.17"/><line class="cls-4" x1="5.54" y1="15.18" x2="16.07" y2="21.26"/><line class="cls-4" x1="5.54" y1="41.51" x2="16.07" y2="35.43"/><line class="cls-4" x1="41.52" y1="51.16" x2="39.43" y2="47.55"/><line class="cls-4" x1="54.68" y1="28.35" x2="50.52" y2="28.35"/><line class="cls-4" x1="41.52" y1="5.54" x2="39.43" y2="9.15"/><line class="cls-4" x1="15.18" y1="5.54" x2="17.26" y2="9.15"/><line class="cls-4" x1="2.01" y1="28.35" x2="6.17" y2="28.35"/><line class="cls-4" x1="15.18" y1="51.16" x2="17.26" y2="47.55"/><line class="cls-5" x1="28.35" y1="59.33" x2="28.35" y2="69.9"/><polygon class="cls-6" points="28.35 76.96 24.28 67.01 28.35 69.37 32.41 67.01 28.35 76.96"/></g></g></svg>