<?xml version="1.0" encoding="utf-8"?>
<!-- Generator: Adobe Illustrator 25.0.0, SVG Export Plug-In . SVG Version: 6.00 Build 0)  -->
<svg version="1.1" id="图层_2" xmlns="http://www.w3.org/2000/svg" xmlns:xlink="http://www.w3.org/1999/xlink" x="0px" y="0px"
	 viewBox="0 0 595.28 841.89" style="enable-background:new 0 0 595.28 841.89;" xml:space="preserve">
<style type="text/css">
	.st0{fill:none;stroke:#000000;stroke-miterlimit:10;}
</style>
<path class="st0" d="M83.56,346.54l249.37-50.94c0,0,15.46-4.05,30.66,5.83c15.21,9.88,169.03,104.33,169.03,104.33
	s20.61,15.54,3.72,21.96c-16.89,6.42-276.91,103.57-276.91,103.57s-20.78,6.59-34.97-9.12C210.27,506.45,70.72,368.42,70.72,368.42
	s-6.03-5.3-2.96-12C70.92,349.55,83.56,346.54,83.56,346.54z"/>
<path class="st0" d="M66.93,359.43l-0.04,23.1c0,0,1.14,2.59,3,4.44c1.86,1.86,144.43,153.94,144.43,153.94s10.81,12.5,31.09,10.47
	s24.33-2.37,39.2-9.12c14.87-6.76,94.7-37.84,94.7-37.84l19.77-3.8l35.32-14.13l14.34-9l85.91-34.47c0,0,8.35-1.71,8.35-11.08
	c0-5.84,0.34-11.53,0.34-11.53"/>
<polyline class="st0" points="381.17,485.79 399.16,487.87 434.64,475.03 449.03,460.42 "/>
<line class="st0" x1="434.64" y1="475.03" x2="434.39" y2="486.5"/>
<line class="st0" x1="399.16" y1="487.87" x2="399.07" y2="500.62"/>
<line class="st0" x1="381.17" y1="485.79" x2="380.26" y2="504.24"/>
<line class="st0" x1="449.03" y1="460.42" x2="447.86" y2="478.04"/>
<path class="st0" d="M407.43,470.47l-186.27-148c0,0-125.28,25.68-133.05,28.05c0,0-12.71,1.4-13.18,8.92
	c-0.31,4.9,5.74,10.84,5.74,10.84l150.53,148.34c0,0,11.15,10.47,33.79,2.7C287.65,513.55,407.43,470.47,407.43,470.47"/>
<path class="st0" d="M228.85,321.2l105.76-22.55c0,0,11.49-2.37,21.63,3.72c10.14,6.08,170.98,105.42,170.98,105.42
	s19.26,11.7,0,18.52c-19.26,6.82-113.03,40.95-113.03,40.95L228.85,321.2z"/>
<path class="st0" d="M68.61,385.46l-0.28,35.48c0,0-0.18,5.39,2.81,9.48c3.95,5.4,135.08,165.74,135.08,165.74
	s17.74,21.29,46.63,10.14c28.89-11.15,114.8-49.42,114.8-49.42l9.12-10.14l51.19-20.27l9.4-0.45l84.79-39.53
	c0,0,3.38-1.73,5.41-8.46c2.03-6.73,11.62-37.32,11.62-37.32"/>
<line class="st0" x1="441.64" y1="481.94" x2="437.36" y2="526.02"/>
<path class="st0" d="M432.27,487.87"/>
<line class="st0" x1="432.27" y1="487.87" x2="427.96" y2="526.47"/>
<line class="st0" x1="376.06" y1="505.69" x2="369.81" y2="554.48"/>
<line class="st0" x1="382.32" y1="503.85" x2="376.77" y2="546.75"/>
<polyline class="st0" points="114.99,404.08 217.87,380.25 350.09,491.05 "/>
<path class="st0" d="M221.17,322.47"/>
<line class="st0" x1="221.17" y1="322.47" x2="217.87" y2="380.25"/>
<path class="st0" d="M279.32,360.97l50.23-11.98c0,0,13.38-2.7,20.54,2.37s136.71,89.52,136.71,89.52"/>
</svg>
