<?xml version="1.0" encoding="utf-8"?>
<!-- Generator: Adobe Illustrator 26.0.0, SVG Export Plug-In . SVG Version: 6.00 Build 0)  -->
<svg version="1.1" id="图层_1" xmlns="http://www.w3.org/2000/svg" xmlns:xlink="http://www.w3.org/1999/xlink" x="0px" y="0px"
	 viewBox="0 0 156 508" style="enable-background:new 0 0 156 508;" xml:space="preserve">
<style type="text/css">
	.st0{fill:none;stroke:#231815;stroke-miterlimit:22.93;}
	.st1{fill:none;stroke:#231815;stroke-linecap:round;stroke-linejoin:round;}
	.st2{fill:none;stroke:#231815;stroke-miterlimit:10;}
	.st3{fill:none;}
	.st4{fill:#010303;}
	.st5{fill:none;stroke:#231815;stroke-width:0.5;stroke-miterlimit:22.93;}
	.st6{fill-rule:evenodd;clip-rule:evenodd;fill:#231815;}
	.st7{fill:none;stroke:#231815;stroke-width:0.22;stroke-miterlimit:22.93;}
	.st8{fill:#231815;}
	.st9{font-family:'ArialMT';}
	.st10{font-size:5.5652px;}
	.st11{font-size:7.3249px;}
	.st12{font-size:5.5703px;}
	.st13{font-size:6.0375px;}
	.st14{font-size:7.9599px;}
	.st15{font-size:7.3404px;}
	.st16{font-size:6.7003px;}
	.st17{font-size:4.5002px;}
	.st18{font-family:'SimHei';}
	.st19{font-size:7.34px;}
	.st20{font-size:2.94px;}
	.st21{font-size:2.74px;}
	.st22{font-size:5.6959px;}
	.st23{font-size:5.46px;}
	.st24{font-size:4.03px;}
	.st25{font-size:4.04px;}
	.st26{fill:none;stroke:#231815;stroke-width:0.14;stroke-miterlimit:22.93;}
	.st27{font-size:5.0458px;}
	.st28{font-size:7.4616px;}
	.st29{fill:none;stroke:#231815;stroke-width:0.37;stroke-miterlimit:22.93;}
</style>
<path class="st0" d="M135,27.1v165.6c0,4.2-2.9,7.7-6.4,7.7H27.4c-3.5,0-6.4-3.5-6.4-7.7V27.1c0-4.2,2.9-7.7,6.4-7.7h101.1
	C132.1,19.4,135,22.9,135,27.1z"/>
<path class="st0" d="M132.7,30.2v160.3c0,4.1-2.8,7.5-6.2,7.5H29.7c-3.4,0-6.2-3.4-6.2-7.5V30.2c0-4.1,2.8-7.5,6.2-7.5h96.8
	C130,22.7,132.7,26.1,132.7,30.2z"/>
<line class="st0" x1="127.4" y1="22.7" x2="127.4" y2="19.4"/>
<line class="st0" x1="131.4" y1="25.8" x2="134.9" y2="25.8"/>
<line class="st0" x1="132.2" y1="193.6" x2="134.9" y2="194"/>
<line class="st0" x1="129.5" y1="197" x2="130.4" y2="200.2"/>
<line class="st0" x1="27.2" y1="23.3" x2="27" y2="19.4"/>
<line class="st0" x1="24.2" y1="26.4" x2="21.1" y2="25.6"/>
<line class="st0" x1="25.1" y1="195.6" x2="21.5" y2="195.8"/>
<line class="st0" x1="27.8" y1="197.6" x2="27" y2="200.5"/>
<rect x="60.5" y="200.7" class="st0" width="34.4" height="1.9"/>
<rect x="70.8" y="202.6" class="st0" width="14.5" height="26.2"/>
<path class="st0" d="M117.8,41.4v46.1c-0.1,3.2-2.7,5.7-5.8,5.6H45c-3.2,0.1-5.8-2.5-5.9-5.6V41.4c0.1-3.2,2.7-5.7,5.9-5.6h67
	C115.2,35.7,117.7,38.2,117.8,41.4z"/>
<rect x="95.9" y="54" class="st1" width="4.8" height="19.9"/>
<rect x="54.9" y="54" class="st1" width="4.8" height="19.9"/>
<rect x="95.9" y="54" class="st1" width="4.8" height="19.9"/>
<rect x="54.9" y="54" class="st1" width="4.8" height="19.9"/>
<rect x="111.8" y="281.7" class="st0" width="7.2" height="128.9"/>
<rect x="109.8" y="411.7" class="st0" width="11.3" height="19.5"/>
<path class="st0" d="M107.2,431.3h16.6c0.3,0,0.5,0.3,0.5,0.7v37.6c0,0.4-0.2,0.7-0.5,0.7h-16.6c-0.2,0-0.5-0.3-0.5-0.7V432
	C106.7,431.6,106.9,431.3,107.2,431.3z"/>
<rect x="109.6" y="470.8" class="st0" width="11.3" height="20.6"/>
<path class="st0" d="M112.6,426.9c0.7,0,1.2,0.5,1.2,1.2s-0.5,1.2-1.2,1.2c-0.7,0-1.2-0.5-1.2-1.2c0,0,0,0,0,0
	C111.4,427.5,111.9,426.9,112.6,426.9C112.6,426.9,112.6,426.9,112.6,426.9z"/>
<path class="st0" d="M118.6,426.9c0.7,0,1.2,0.5,1.2,1.2s-0.5,1.2-1.2,1.2c-0.7,0-1.2-0.5-1.2-1.2c0,0,0,0,0,0
	C117.4,427.5,118,426.9,118.6,426.9C118.6,426.9,118.6,426.9,118.6,426.9z"/>
<path class="st0" d="M111.2,283.1v73.8c0.1,1.3-0.7,2.4-2,2.6H106c-1.3-0.2-2.1-1.3-2-2.6v-73.8c-0.1-1.3,0.7-2.4,2-2.6h3.2
	C110.5,280.7,111.3,281.8,111.2,283.1z"/>
<path class="st0" d="M104,283.1v73.8c0.1,1.3-0.7,2.4-2,2.6h-3.2c-1.3-0.2-2.1-1.3-2-2.6v-73.8c-0.1-1.3,0.7-2.4,2-2.6h3.2
	C103.3,280.7,104.1,281.8,104,283.1z"/>
<path class="st0" d="M96.7,283.1v73.8c0.1,1.3-0.7,2.4-2,2.6h-3.2c-1.3-0.2-2.1-1.3-2-2.6v-73.8c-0.1-1.3,0.7-2.4,2-2.6h3.2
	C96,280.7,96.8,281.8,96.7,283.1z"/>
<path class="st0" d="M89.5,283.1v73.8c0.1,1.3-0.7,2.4-2,2.6h-3.2c-1.3-0.2-2.1-1.3-2-2.6v-73.8c-0.1-1.3,0.7-2.4,2-2.6h3.2
	C88.8,280.7,89.7,281.8,89.5,283.1z"/>
<rect x="74.8" y="229.4" class="st0" width="7.2" height="128.8"/>
<rect x="74.9" y="316.1" width="43.8" height="2.4"/>
<rect x="74.9" y="316.1" class="st2" width="43.8" height="2.4"/>
<rect x="118.6" y="313.9" transform="matrix(0.8838 -0.4679 0.4679 0.8838 -132.832 94.3388)" width="9.8" height="1.2"/>
<rect x="118.6" y="313.9" transform="matrix(0.8838 -0.4679 0.4679 0.8838 -132.832 94.3388)" class="st3" width="9.8" height="1.2"/>
<rect x="123.3" y="315.2" transform="matrix(0.5407 -0.8412 0.8412 0.5407 -212.3275 251.2265)" class="st4" width="1.2" height="9.8"/>
<rect x="123.3" y="315.2" transform="matrix(0.5407 -0.8412 0.8412 0.5407 -212.3275 251.2265)" class="st5" width="1.2" height="9.8"/>
<path class="st6" d="M115,150.1c-0.3,0-0.6,0.2-0.7,0.6c0,0.3,0.3,0.6,0.7,0.6c0.3,0,0.6-0.2,0.7-0.6
	C115.6,150.3,115.3,150.1,115,150.1z M121.9,134.6l-4.9,4.5h-0.3c0-0.2,0-0.4,0-0.5h0.6v-0.3c0.3-0.1,0.6-0.3,0.6-0.7
	c0-0.4-0.4-0.7-0.8-0.7c-0.2,0-0.5,0.1-0.6,0.3c-0.9-0.5-2-0.8-3-0.8v-0.4h-2.8v0.3c-0.5,0-1.1,0-1.7,0.1v-0.2h-1.1v0.4
	c-0.8,0.2-1.3,0.6-1.3,1.1c0,0,0,0.1,0,0.1h-0.8v0.7h0.8c0,0.3,0,0.6,0.1,1.1l-5.3-5.1v0.7l5.4,5.1c0.2,2.2,0.6,5.1,0.9,7.3
	l-5.8,5.4l0.4,0.4l5.5-5.1c0.2,1.5,0.3,2.5,0.3,2.6v0.2h0.2v1.1h1.1v-1.1h3.7c0.4,0.7,1.1,1.2,2,1.1c1,0.1,1.9-0.7,1.9-1.7
	c0,0,0,0,0,0c0-0.3-0.1-0.5-0.2-0.7l3.8,3.6l0.4-0.4l-5-4.8c0.2-2.1,0.5-5.1,0.7-7.5h1.3v-1.9h-0.1l4-3.8L121.9,134.6z M111.2,136.2
	h1.8v0.1l0,0v0.4h-1.8V136.2z M108.3,136.9h0.2v0.6h-0.2V136.9z M107,137.8c0-0.3,0.3-0.5,0.9-0.7v0.9H107L107,137.8z M108.1,147.4
	c-0.3-2-0.6-4.5-0.8-6.5l3.8,3.6L108.1,147.4z M109,152h-0.2v-0.7h0.2L109,152z M113,150.7c0,0.1,0,0.1,0,0.2h-4.5
	c0-0.4-0.2-1.4-0.4-2.8l3.4-3.1l4,3.8v0.3c-0.2,0-0.3,0-0.5-0.1C114,148.9,113.1,149.6,113,150.7C113,150.6,113,150.7,113,150.7
	L113,150.7z M115.9,150.7c0,0.5-0.5,0.9-1,0.9c0,0,0,0,0,0c-0.5,0-1-0.4-1-0.9c0-0.5,0.5-0.9,1-0.9c0,0,0,0,0,0
	C115.4,149.8,115.9,150.1,115.9,150.7C115.9,150.7,115.9,150.7,115.9,150.7L115.9,150.7z M115.8,149.1L115.8,149.1L115.8,149.1
	L115.8,149.1z M115.5,148l-3.6-3.4l4-3.7v0.1h0.2C115.9,143.1,115.7,146,115.5,148L115.5,148z M113.9,141.8H111v-0.1L113.9,141.8
	L113.9,141.8z M116.2,139.1h-0.4v1.1l-1.5,1.4v-0.3h-3.8v0.9h3.1l-2.2,2l-4.3-4.1c0-0.6-0.1-1.1-0.1-1.5h9.2
	C116.3,138.7,116.2,138.9,116.2,139.1L116.2,139.1z M116.3,137.9H109v-1.1c0.6-0.1,1.1-0.1,1.7-0.1v0.3h2.8v-0.3
	c1.6,0.2,2.7,0.5,2.9,0.8l0,0c0,0.1,0,0.1,0,0.2C116.3,137.7,116.3,137.9,116.3,137.9L116.3,137.9z M117.3,140.5h-0.8
	c0-0.1,0-0.2,0-0.3l0.7-0.6l0,0L117.3,140.5z"/>
<path class="st7" d="M115,150.1c-0.3,0-0.6,0.2-0.7,0.6c0,0.3,0.3,0.6,0.7,0.6c0.3,0,0.6-0.2,0.7-0.6
	C115.6,150.3,115.3,150.1,115,150.1z M121.9,134.6l-4.9,4.5h-0.3c0-0.2,0-0.4,0-0.5h0.6v-0.3c0.3-0.1,0.6-0.3,0.6-0.7
	c0-0.4-0.4-0.7-0.8-0.7c-0.2,0-0.5,0.1-0.6,0.3c-0.9-0.5-2-0.8-3-0.8v-0.4h-2.8v0.3c-0.5,0-1.1,0-1.7,0.1v-0.2h-1.1v0.4
	c-0.8,0.2-1.3,0.6-1.3,1.1c0,0,0,0.1,0,0.1h-0.8v0.7h0.8c0,0.3,0,0.6,0.1,1.1l-5.3-5.1v0.7l5.4,5.1c0.2,2.2,0.6,5.1,0.9,7.3
	l-5.8,5.4l0.4,0.4l5.5-5.1c0.2,1.5,0.3,2.5,0.3,2.6v0.2h0.2v1.1h1.1v-1.1h3.7c0.4,0.7,1.1,1.2,2,1.1c1,0.1,1.9-0.7,1.9-1.7
	c0,0,0,0,0,0c0-0.3-0.1-0.5-0.2-0.7l3.8,3.6l0.4-0.4l-5-4.8c0.2-2.1,0.5-5.1,0.7-7.5h1.3v-1.9h-0.1l4-3.8L121.9,134.6z M111.2,136.2
	h1.8v0.1l0,0v0.4h-1.8V136.2z M108.3,136.9h0.2v0.6h-0.2V136.9z M107,137.8c0-0.3,0.3-0.5,0.9-0.7v0.9H107L107,137.8z M108.1,147.4
	c-0.3-2-0.6-4.5-0.8-6.5l3.8,3.6L108.1,147.4z M109,152h-0.2v-0.7h0.2L109,152z M113,150.7c0,0.1,0,0.1,0,0.2h-4.5
	c0-0.4-0.2-1.4-0.4-2.8l3.4-3.1l4,3.8v0.3c-0.2,0-0.3,0-0.5-0.1C114,148.9,113.1,149.6,113,150.7C113,150.6,113,150.7,113,150.7
	L113,150.7z M115.9,150.7c0,0.5-0.5,0.9-1,0.9c0,0,0,0,0,0c-0.5,0-1-0.4-1-0.9c0-0.5,0.5-0.9,1-0.9c0,0,0,0,0,0
	C115.4,149.8,115.9,150.1,115.9,150.7C115.9,150.7,115.9,150.7,115.9,150.7L115.9,150.7z M115.8,149.1L115.8,149.1L115.8,149.1
	L115.8,149.1z M115.5,148l-3.6-3.4l4-3.7v0.1h0.2C115.9,143.1,115.7,146,115.5,148L115.5,148z M113.9,141.8H111v-0.1L113.9,141.8
	L113.9,141.8z M116.2,139.1h-0.4v1.1l-1.5,1.4v-0.3h-3.8v0.9h3.1l-2.2,2l-4.3-4.1c0-0.6-0.1-1.1-0.1-1.5h9.2
	C116.3,138.7,116.2,138.9,116.2,139.1L116.2,139.1z M116.3,137.9H109v-1.1c0.6-0.1,1.1-0.1,1.7-0.1v0.3h2.8v-0.3
	c1.6,0.2,2.7,0.5,2.9,0.8l0,0c0,0.1,0,0.1,0,0.2C116.3,137.7,116.3,137.9,116.3,137.9L116.3,137.9z M117.3,140.5h-0.8
	c0-0.1,0-0.2,0-0.3l0.7-0.6l0,0L117.3,140.5z"/>
<polygon class="st6" points="121.3,161.1 102.8,161.1 102.8,157.3 121.2,157.3 "/>
<text transform="matrix(0.9434 0 9.433542e-03 1 33.4098 123.1303)" class="st8 st9 st10">I</text>
<text transform="matrix(0.9434 0 9.433542e-03 1 35.1598 123.1303)" class="st8 st9 st10">N</text>
<text transform="matrix(0.9434 0 9.433542e-03 1 39.2399 123.1303)" class="st8 st9 st10">P</text>
<text transform="matrix(0.9434 0 9.433542e-03 1 43.03 123.1303)" class="st8 st9 st10">U</text>
<text transform="matrix(0.9434 0 9.433542e-03 1 47.11 123.1303)" class="st8 st9 st10">T</text>
<text transform="matrix(0.9434 0 9.433542e-03 1 50.61 123.1303)" class="st8 st9 st11">:</text>
<text transform="matrix(0.9434 0 9.433542e-03 1 52.9098 123.1303)" class="st8 st9 st10">1</text>
<text transform="matrix(0.9434 0 9.433542e-03 1 56.1198 123.1303)" class="st8 st9 st10">0</text>
<text transform="matrix(0.9434 0 9.433542e-03 1 59.3298 123.1303)" class="st8 st9 st10">0</text>
<text transform="matrix(0.9434 0 9.433542e-03 1 62.5402 123.1303)" class="st8 st9 st10">-</text>
<text transform="matrix(0.9434 0 9.433542e-03 1 64.57 123.1303)" class="st8 st9 st10">2</text>
<text transform="matrix(0.9434 0 9.433542e-03 1 67.78 123.1303)" class="st8 st9 st10">4</text>
<text transform="matrix(0.9434 0 9.433542e-03 1 70.9899 123.1303)" class="st8 st9 st10">0</text>
<text transform="matrix(0.9434 0 9.433542e-03 1 74.1999 123.1303)" class="st8 st9 st10">V   </text>
<text transform="matrix(1 0 9.999500e-03 0.9999 83.38 123.0192)" class="st8 st9 st12">5</text>
<text transform="matrix(1 0 9.999500e-03 0.9999 86.7902 123.0192)" class="st8 st9 st12">0</text>
<text transform="matrix(1 0 9.999500e-03 0.9999 90.1998 123.0192)" class="st8 st9 st12">/</text>
<text transform="matrix(1 0 9.999500e-03 0.9999 92.0499 123.0192)" class="st8 st9 st12">6</text>
<text transform="matrix(1 0 9.999500e-03 0.9999 95.4601 123.0192)" class="st8 st9 st12">0</text>
<text transform="matrix(1 0 9.999500e-03 0.9999 98.8698 123.0192)" class="st8 st9 st12">H</text>
<text transform="matrix(1 0 9.999500e-03 0.9999 103.1998 123.0192)" class="st8 st9 st12">z</text>
<text transform="matrix(1 0 9.999500e-03 0.9999 107.5299 123.0192)" class="st8 st9 st12">1</text>
<text transform="matrix(1 0 9.999500e-03 0.9999 110.9401 123.0192)" class="st8 st9 st12">.</text>
<text transform="matrix(1 0 9.999500e-03 0.9999 112.7902 123.0192)" class="st8 st9 st12">0</text>
<text transform="matrix(1 0 9.999500e-03 0.9999 116.1998 123.0192)" class="st8 st9 st12">A</text>
<text transform="matrix(0.9259 0 9.258862e-03 1 33.5498 131.1295)" class="st8 st9 st13">O</text>
<text transform="matrix(0.9259 0 9.258862e-03 1 38.2099 131.1295)" class="st8 st9 st13">U</text>
<text transform="matrix(0.9259 0 9.258862e-03 1 42.56 131.1295)" class="st8 st9 st13">T</text>
<text transform="matrix(0.9259 0 9.258862e-03 1 46.2802 131.1295)" class="st8 st9 st13">P</text>
<text transform="matrix(0.9259 0 9.258862e-03 1 50.3198 131.1295)" class="st8 st9 st13">U</text>
<text transform="matrix(0.9259 0 9.258862e-03 1 54.6699 131.1295)" class="st8 st9 st13">T</text>
<text transform="matrix(0.9259 0 9.258862e-03 1 58.3999 131.1295)" class="st8 st9 st14">:</text>
<text transform="matrix(0.9259 0 9.258862e-03 1 60.85 131.1295)" class="st8 st9 st13">1</text>
<text transform="matrix(0.9259 0 9.258862e-03 1 64.27 131.1295)" class="st8 st9 st13">2</text>
<text transform="matrix(0.9259 0 9.258862e-03 1 67.7001 131.1295)" class="st8 st9 st13">.</text>
<text transform="matrix(0.9259 0 9.258862e-03 1 69.56 131.1295)" class="st8 st9 st13">6</text>
<text transform="matrix(0.9259 0 9.258862e-03 1 72.9799 131.1295)" class="st8 st9 st13">V      2</text>
<text transform="matrix(0.9259 0 9.258862e-03 1 89.4501 131.1295)" class="st8 st9 st13">A</text>
<text transform="matrix(1 0 9.999500e-03 0.9999 33.36 115.2588)" class="st8 st9 st12">M</text>
<text transform="matrix(1 0 9.999500e-03 0.9999 38.3102 115.2588)" class="st8 st9 st12">O</text>
<text transform="matrix(1 0 9.999500e-03 0.9999 42.9499 115.2588)" class="st8 st9 st12">D</text>
<text transform="matrix(1 0 9.999500e-03 0.9999 47.28 115.2588)" class="st8 st9 st12">E</text>
<text transform="matrix(1 0 9.999500e-03 0.9999 51.3102 115.2588)" class="st8 st9 st12">L</text>
<text transform="matrix(1 0 9.999500e-03 0.9999 54.7101 115.2588)" class="st8 st9 st15">:</text>
<text transform="matrix(1 0 9.999500e-03 0.9999 57.1598 115.2588)" class="st8 st9 st12">G</text>
<text transform="matrix(1 0 9.999500e-03 0.9999 61.8 115.2588)" class="st8 st9 st12">F</text>
<text transform="matrix(1 0 9.999500e-03 0.9999 65.5099 115.2588)" class="st8 st9 st12">D</text>
<text transform="matrix(1 0 9.999500e-03 0.9999 69.84 115.2588)" class="st8 st9 st12">2</text>
<text transform="matrix(1 0 9.999500e-03 0.9999 73.2502 115.2588)" class="st8 st9 st12">4</text>
<text transform="matrix(1 0 9.999500e-03 0.9999 76.6598 115.2588)" class="st8 st9 st12">-</text>
<text transform="matrix(1 0 9.999500e-03 0.9999 78.82 115.2588)" class="st8 st9 st12">1</text>
<text transform="matrix(1 0 9.999500e-03 0.9999 82.2301 115.2588)" class="st8 st9 st12">2</text>
<text transform="matrix(1 0 9.999500e-03 0.9999 85.6301 115.2588)" class="st8 st9 st12">6</text>
<text transform="matrix(1 0 9.999500e-03 0.9999 89.0402 115.2588)" class="st8 st9 st12">2</text>
<text transform="matrix(1 0 9.999500e-03 0.9999 92.4499 115.2588)" class="st8 st9 st12">0</text>
<text transform="matrix(1 0 9.999500e-03 0.9999 95.8498 115.2588)" class="st8 st9 st12">0</text>
<text transform="matrix(1 0 9.999500e-03 0.9999 99.2599 115.2588)" class="st8 st9 st12">0</text>
<text transform="matrix(1 0 9.999500e-03 0.9999 102.6701 115.2588)" class="st8 st9 st12">U</text>
<text transform="matrix(1 0 9.999500e-03 0.9999 107.0002 115.2588)" class="st8 st9 st12">L</text>
<text transform="matrix(1 0 9.999500e-03 0.9999 48.3401 108.4291)" class="st8 st9 st16">A</text>
<text transform="matrix(1 0 9.999500e-03 0.9999 53.1702 108.4291)" class="st8 st9 st16">C</text>
<text transform="matrix(1 0 9.999500e-03 0.9999 58.3801 108.4291)" class="st8 st9 st16">/</text>
<text transform="matrix(1 0 9.999500e-03 0.9999 60.6101 108.4291)" class="st8 st9 st16">D</text>
<text transform="matrix(1 0 9.999500e-03 0.9999 65.8201 108.4291)" class="st8 st9 st16">C  </text>
<text transform="matrix(1 0 9.999500e-03 0.9999 74.01 108.4291)" class="st8 st9 st16">A</text>
<text transform="matrix(1 0 9.999500e-03 0.9999 78.8498 108.4291)" class="st8 st9 st16">D</text>
<text transform="matrix(1 0 9.999500e-03 0.9999 84.05 108.4291)" class="st8 st9 st16">A</text>
<text transform="matrix(1 0 9.999500e-03 0.9999 88.8899 108.4291)" class="st8 st9 st16">P</text>
<text transform="matrix(1 0 9.999500e-03 0.9999 93.7302 108.4291)" class="st8 st9 st16">T</text>
<text transform="matrix(1 0 9.999500e-03 0.9999 98.1902 108.4291)" class="st8 st9 st16">E</text>
<text transform="matrix(1 0 9.999500e-03 0.9999 103.03 108.4291)" class="st8 st9 st16">R</text>
<text transform="matrix(1 0 9.999500e-03 0.9999 77.6602 177.9388)" class="st8 st9 st17">M</text>
<text transform="matrix(1 0 9.999500e-03 0.9999 81.6499 177.9388)" class="st8 st9 st17">A</text>
<text transform="matrix(1 0 9.999500e-03 0.9999 84.9102 177.9388)" class="st8 st9 st17">D</text>
<text transform="matrix(1 0 9.999500e-03 0.9999 88.3999 177.9388)" class="st8 st9 st17">E  I</text>
<text transform="matrix(1 0 9.999500e-03 0.9999 95.3999 177.9388)" class="st8 st9 st17">N  C</text>
<text transform="matrix(1 0 9.999500e-03 0.9999 104.6499 177.9388)" class="st8 st9 st17">H</text>
<text transform="matrix(1 0 9.999500e-03 0.9999 108.1499 177.9388)" class="st8 st9 st17">I</text>
<text transform="matrix(1 0 9.999500e-03 0.9999 109.6499 177.9388)" class="st8 st9 st17">N</text>
<text transform="matrix(1 0 9.999500e-03 0.9999 113.1499 177.9388)" class="st8 st9 st17">A</text>
<text transform="matrix(1.24 0 0 1 78.3604 126.85)" class="st8 st18 st19">~</text>
<path class="st6" d="M45.1,135.3c0.6,0,1.2,0.1,1.8,0.2v1.6c-0.3-0.1-0.7-0.2-1-0.3v10h-1.4v-10c-0.3,0-0.7,0.1-1,0.2v-1.6
	C43.9,135.4,44.5,135.3,45.1,135.3"/>
<path class="st6" d="M50,140L50,140c0.1,0.1,0,0.1,0,0.2c0,0-0.1,0.1-0.2,0.1c-0.1,0-0.1,0-0.2-0.1c0,0-0.1-0.1-0.1-0.1
	c0-0.1,0-0.1,0-0.2c0-0.1,0-0.1,0-0.2c0,0,0.1-0.1,0.1-0.1c0.1,0,0.1,0,0.2,0c0.1,0,0.1,0,0.2,0.1c0,0,0.1,0.1,0.1,0.1H50
	c0,0,0-0.1-0.1-0.1c-0.1,0-0.2,0-0.2,0c0,0-0.1,0.1-0.1,0.1c0,0,0,0.1,0,0.1c0,0,0,0.1,0,0.1c0,0,0,0.1,0.1,0.1c0,0,0.1,0,0.1,0
	c0,0,0.1,0,0.1,0C50,140.1,50,140,50,140"/>
<path class="st6" d="M47.2,148.8l0.2-0.1l0.1-0.1c0,0,0.1,0,0.1-0.1c0,0,0-0.1,0-0.1c0-0.1,0-0.1,0-0.2c0-0.1-0.1-0.2-0.1-0.2
	c0,0-0.1-0.1-0.2-0.1c-0.1,0-0.1,0-0.2,0l-0.2,0.1L47.2,148.8z M47.1,148.9l-0.3-0.9l0.3-0.1c0.1,0,0.1,0,0.2,0c0.1,0,0.1,0,0.2,0
	c0.1,0,0.1,0.1,0.2,0.1c0.1,0.1,0.1,0.1,0.1,0.2c0,0.1,0,0.1,0,0.2c0,0.1,0,0.1,0,0.2c0,0,0,0.1-0.1,0.1c0,0-0.1,0.1-0.1,0.1
	c0,0-0.1,0.1-0.2,0.1L47.1,148.9z M46,149.1l-0.2-1l0.7-0.1v0.1l-0.6,0.1l0.1,0.3l0.6-0.1v0.1l-0.6,0.1l0.1,0.3l0.6-0.1v0.1
	L46,149.1z M45.2,149.1v-0.9h-0.3v-0.1h0.8v0.1h-0.3v0.9L45.2,149.1z M43.8,148.7H44c0,0,0,0.1,0,0.1c0,0,0.1,0.1,0.1,0.1
	c0,0,0.1,0,0.2,0.1h0.1l0.1-0.1c0,0,0-0.1,0-0.1c0,0,0-0.1,0-0.1c0,0,0-0.1-0.1-0.1l-0.2-0.1c-0.1,0-0.1-0.1-0.2-0.1
	c0,0-0.1-0.1-0.1-0.1c0,0,0-0.1,0-0.1c0,0,0-0.1,0.1-0.1c0,0,0.1-0.1,0.2-0.1c0.1,0,0.1,0,0.2,0c0.1,0,0.1,0,0.2,0.1
	c0,0,0.1,0.1,0.1,0.1c0,0.1,0,0.1,0,0.2h-0.1c0,0,0-0.1,0-0.1c0,0-0.1-0.1-0.2-0.1c-0.1,0-0.1,0-0.2,0c0,0-0.1,0.1-0.1,0.1
	c0,0,0,0.1,0,0.1c0.1,0,0.1,0.1,0.2,0.1l0.2,0.1c0,0,0.1,0.1,0.1,0.1c0,0,0,0.1,0,0.1c0,0.1,0,0.1-0.1,0.1c0,0-0.1,0.1-0.2,0.1
	c-0.1,0-0.1,0-0.2,0c-0.1,0-0.2,0-0.2-0.1c-0.1,0-0.1-0.1-0.1-0.1C43.8,148.8,43.8,148.8,43.8,148.7L43.8,148.7z M43.3,148.9l0.2-1
	h0.1l-0.2,1H43.3z M42.4,148.7l0.3-0.9h0.1l-0.3,0.8l0.5,0.1v0.1L42.4,148.7z"/>
<path class="st6" d="M50.2,140.2v-0.6h0.1l0.2,0.5c0,0,0,0.1,0,0.1V140l0.2-0.5h0.1v0.6h0v-0.5l-0.2,0.5h-0.1l-0.2-0.6L50.2,140.2
	L50.2,140.2z"/>
<path class="st6" d="M47.2,135.6c0.5,0.2,0.9,0.4,1.4,0.7v7.4c0.6-0.8,1-1.7,1-2.7c0-0.2,0-0.3,0-0.5h1.5c0,0.2,0,0.3,0,0.5
	c0,2.4-1.6,4.6-3.9,5.4v-2l0,0L47.2,135.6"/>
<path class="st6" d="M43.1,137.1c-1.3,0.6-2.2,1.8-2.5,3.2H43v1.4h-2.4c0.3,1.4,1.2,2.5,2.5,3.1v1.6c-3-0.9-4.7-4-3.9-7
	c0.5-1.9,2-3.3,3.9-3.9L43.1,137.1z"/>
<path class="st6" d="M53.6,141c-0.3-4.7-4.4-8.2-9.1-7.9c-4.2,0.3-7.6,3.7-7.9,7.9c0,3.4,2.1,6.4,5.2,7.7c0-0.4,0.1-0.8,0.2-1.1
	c-2.6-1.1-4.3-3.7-4.3-6.5c0-4.1,3.3-7.4,7.4-7.4s7.3,3.3,7.3,7.4c0,2.8-1.7,5.4-4.3,6.5c0.2,0.4,0.2,0.7,0.2,1.1
	C51.5,147.4,53.5,144.4,53.6,141z"/>
<path class="st7" d="M53.6,141c-0.3-4.7-4.4-8.2-9.1-7.9c-4.2,0.3-7.6,3.7-7.9,7.9c0,3.4,2.1,6.4,5.2,7.7c0-0.4,0.1-0.8,0.2-1.1
	c-2.6-1.1-4.3-3.7-4.3-6.5c0-4.1,3.3-7.4,7.4-7.4s7.3,3.3,7.3,7.4c0,2.8-1.7,5.4-4.3,6.5c0.2,0.4,0.2,0.7,0.2,1.1
	C51.5,147.4,53.5,144.4,53.6,141z"/>
<text transform="matrix(1.05 0 0 1 35.0098 147.5502)" class="st8 st9 st20">C</text>
<text transform="matrix(1.05 0 0 1 52.4897 147.7098)" class="st8 st9 st21">U</text>
<text transform="matrix(1.05 0 0 1 54.7295 147.7098)" class="st8 st9 st21">S</text>
<rect x="37.3" y="149.8" class="st8" width="17.5" height="0.6"/>
<rect x="37.3" y="149.8" class="st7" width="17.5" height="0.6"/>
<text transform="matrix(0.9709 0 0 1 35.7402 155.5394)" class="st8 st9 st22">l</text>
<text transform="matrix(0.9709 0 0 1 37.2798 155.5394)" class="st8 st9 st22">n</text>
<text transform="matrix(0.9709 0 0 1 40.6699 155.5394)" class="st8 st9 st22">t</text>
<text transform="matrix(0.9709 0 0 1 42.5098 155.5394)" class="st8 st9 st22">e</text>
<text transform="matrix(0.9709 0 0 1 45.8999 155.5394)" class="st8 st9 st22">r</text>
<text transform="matrix(0.9709 0 0 1 48.0498 155.5394)" class="st8 st9 st22">t</text>
<text transform="matrix(0.9709 0 0 1 49.8901 155.5394)" class="st8 st9 st22">e</text>
<text transform="matrix(0.9709 0 0 1 53.2798 155.5394)" class="st8 st9 st22">k</text>
<text transform="matrix(1 0 0 1 34.16 160.95)" class="st8 st9 st23">5</text>
<text transform="matrix(1 0 0 1 37.5 160.95)" class="st8 st9 st23">0</text>
<text transform="matrix(1 0 0 1 40.84 160.95)" class="st8 st9 st23">1</text>
<text transform="matrix(1 0 0 1 44.18 160.95)" class="st8 st9 st23">7</text>
<text transform="matrix(1 0 0 1 47.53 160.95)" class="st8 st9 st23">3</text>
<text transform="matrix(1 0 0 1 50.87 160.95)" class="st8 st9 st23">0</text>
<text transform="matrix(1 0 0 1 54.21 160.95)" class="st8 st9 st23">7</text>
<text transform="matrix(1 0 0 1 34.08 171.38)" class="st8 st9 st24">C</text>
<text transform="matrix(1 0 0 1 37.22 171.38)" class="st8 st9 st24">E</text>
<text transform="matrix(1 0 0 1 40.13 171.38)" class="st8 st9 st24">R</text>
<text transform="matrix(1 0 0 1 43.2 171.38)" class="st8 st9 st24">T</text>
<text transform="matrix(1 0 0 1 45.89 171.38)" class="st8 st9 st24">I</text>
<text transform="matrix(1 0 0 1 47.23 171.38)" class="st8 st9 st24">F</text>
<text transform="matrix(1 0 0 1 49.92 171.38)" class="st8 st9 st24">I</text>
<text transform="matrix(1 0 0 1 51.26 171.38)" class="st8 st9 st24">E</text>
<text transform="matrix(1 0 0 1 54.18 171.38)" class="st8 st9 st24">D</text>
<text transform="matrix(1 0 0 1 58.14 171.38)" class="st8 st9 st24">T</text>
<text transform="matrix(1 0 0 1 60.76 171.38)" class="st8 st9 st24">O C</text>
<text transform="matrix(1 0 0 1 68.15 171.38)" class="st8 st9 st24">S</text>
<text transform="matrix(1 0 0 1 71.07 171.38)" class="st8 st9 st24">A</text>
<text transform="matrix(1 0 0 1 73.53 171.38)" class="st8 st9 st24"> S</text>
<text transform="matrix(1 0 0 1 77.57 171.38)" class="st8 st9 st24">T</text>
<text transform="matrix(1 0 0 1 80.26 171.38)" class="st8 st9 st24">D C</text>
<text transform="matrix(1 0 0 1 87.43 171.38)" class="st8 st9 st24">2</text>
<text transform="matrix(1 0 0 1 89.9 171.38)" class="st8 st9 st24">2</text>
<text transform="matrix(1 0 0 1 92.36 171.38)" class="st8 st9 st24">.</text>
<text transform="matrix(1 0 0 1 93.71 171.38)" class="st8 st9 st24">2 N</text>
<text transform="matrix(1 0 0 1 100.21 171.38)" class="st8 st9 st24">o</text>
<text transform="matrix(1 0 0 1 102.68 171.38)" class="st8 st9 st24">.</text>
<text transform="matrix(1 0 0 1 104.02 171.38)" class="st8 st9 st24">6</text>
<text transform="matrix(1 0 0 1 106.49 171.38)" class="st8 st9 st24">2</text>
<text transform="matrix(1 0 0 1 108.96 171.38)" class="st8 st9 st24">3</text>
<text transform="matrix(1 0 0 1 111.43 171.38)" class="st8 st9 st24">6</text>
<text transform="matrix(1 0 0 1 113.89 171.38)" class="st8 st9 st24">8</text>
<text transform="matrix(1 0 0 1 116.36 171.38)" class="st8 st9 st24">-</text>
<text transform="matrix(1 0 0 1 117.93 171.38)" class="st8 st9 st24">1</text>
<text transform="matrix(1 0 0 1 34.02 166.41)" class="st8 st9 st25">C</text>
<text transform="matrix(1 0 0 1 37.16 166.41)" class="st8 st9 st25">O</text>
<text transform="matrix(1 0 0 1 40.53 166.41)" class="st8 st9 st25">M</text>
<text transform="matrix(1 0 0 1 44.12 166.41)" class="st8 st9 st25">F</text>
<text transform="matrix(1 0 0 1 46.81 166.41)" class="st8 st9 st25">O</text>
<text transform="matrix(1 0 0 1 50.18 166.41)" class="st8 st9 st25">R</text>
<text transform="matrix(1 0 0 1 53.32 166.41)" class="st8 st9 st25">M</text>
<text transform="matrix(1 0 0 1 56.92 166.41)" class="st8 st9 st25">S</text>
<text transform="matrix(1 0 0 1 60.66 166.41)" class="st8 st9 st25">T</text>
<text transform="matrix(1 0 0 1 63.28 166.41)" class="st8 st9 st25">O U</text>
<text transform="matrix(1 0 0 1 70.69 166.41)" class="st8 st9 st25">L</text>
<text transform="matrix(1 0 0 1 72.79 166.41)" class="st8 st9 st25"> S</text>
<text transform="matrix(1 0 0 1 76.83 166.41)" class="st8 st9 st25">T</text>
<text transform="matrix(1 0 0 1 79.53 166.41)" class="st8 st9 st25">D</text>
<text transform="matrix(1 0 0 1 82.67 166.41)" class="st8 st9 st25">.</text>
<text transform="matrix(1 0 0 1 84.02 166.41)" class="st8 st9 st25">6</text>
<text transform="matrix(1 0 0 1 86.49 166.41)" class="st8 st9 st25">2</text>
<text transform="matrix(1 0 0 1 88.96 166.41)" class="st8 st9 st25">3</text>
<text transform="matrix(1 0 0 1 91.43 166.41)" class="st8 st9 st25">6</text>
<text transform="matrix(1 0 0 1 93.91 166.41)" class="st8 st9 st25">8</text>
<text transform="matrix(1 0 0 1 96.38 166.41)" class="st8 st9 st25">-</text>
<text transform="matrix(1 0 0 1 97.95 166.41)" class="st8 st9 st25">1</text>
<rect x="82.4" y="129.9" class="st8" width="1.4" height="0.5"/>
<rect x="80.3" y="129.9" class="st8" width="1.4" height="0.5"/>
<rect x="78.2" y="129.9" class="st8" width="1.4" height="0.5"/>
<rect x="78.2" y="127.9" class="st8" width="5.7" height="0.6"/>
<path class="st8" d="M88.2,149.8v10.7h10.7v-10.7H88.2z M87.6,149.2h11.9V161H87.6L87.6,149.2z M91,152.5v5.1h5v-5.1H91z
	 M90.4,151.9h6.3v6.3h-6.3V151.9z"/>
<path class="st26" d="M88.2,149.8v10.7h10.7v-10.7H88.2z M87.6,149.2h11.9V161H87.6L87.6,149.2z M91,152.5v5.1h5v-5.1H91z
	 M90.4,151.9h6.3v6.3h-6.3V151.9z"/>
<path class="st8" d="M95.2,135.9l-0.7,0.3l-1.4-1.4l-5.8,5.7H88v5.9h10.2v-5.9h0.7l-2.4-2.4l-0.1-0.3v-3.3h-1.2V135.9z M94.3,134.9
	v-1.1h2.9v4l3,2.9l0.7,0.6H99v5.9H87.1v-5.9h-1.8l0.7-0.6l6.8-6.7l0.3-0.3l0.3,0.3L94.3,134.9z"/>
<path class="st7" d="M95.2,135.9l-0.7,0.3l-1.4-1.4l-5.8,5.7H88v5.9h10.2v-5.9h0.7l-2.4-2.4l-0.1-0.3v-3.3h-1.2V135.9z M94.3,134.9
	v-1.1h2.9v4l3,2.9l0.7,0.6H99v5.9H87.1v-5.9h-1.8l0.7-0.6l6.8-6.7l0.3-0.3l0.3,0.3L94.3,134.9z"/>
<text transform="matrix(0.8403 0 8.403064e-03 1 33.4999 183.7597)" class="st8 st9 st27">D</text>
<text transform="matrix(0.8403 0 8.403064e-03 1 36.8002 183.7597)" class="st8 st9 st27">o</text>
<text transform="matrix(0.8403 0 8.403064e-03 1 39.39 183.7597)" class="st8 st9 st27">n</text>
<text transform="matrix(0.8403 0 8.403064e-03 1 41.9799 183.7597)" class="st8 st9 st27">g</text>
<text transform="matrix(0.8403 0 8.403064e-03 1 44.58 183.7597)" class="st8 st9 st27">g</text>
<text transform="matrix(0.8403 0 8.403064e-03 1 47.1698 183.7597)" class="st8 st9 st27">u</text>
<text transform="matrix(0.8403 0 8.403064e-03 1 49.7601 183.7597)" class="st8 st9 st27">a</text>
<text transform="matrix(0.8403 0 8.403064e-03 1 52.35 183.7597)" class="st8 st9 st27">n G</text>
<text transform="matrix(0.8403 0 8.403064e-03 1 59.4198 183.7597)" class="st8 st9 st27">a</text>
<text transform="matrix(0.8403 0 8.403064e-03 1 62.0101 183.7597)" class="st8 st9 st27">o</text>
<text transform="matrix(0.8403 0 8.403064e-03 1 64.6 183.7597)" class="st8 st9 st27">F</text>
<text transform="matrix(0.8403 0 8.403064e-03 1 67.4198 183.7597)" class="st8 st9 st27">a</text>
<text transform="matrix(0.8403 0 8.403064e-03 1 70.0199 183.7597)" class="st8 st9 st27">n</text>
<text transform="matrix(0.8403 0 8.403064e-03 1 72.6102 183.7597)" class="st8 st9 st27">D</text>
<text transform="matrix(0.8403 0 8.403064e-03 1 75.8998 183.7597)" class="st8 st9 st27">e</text>
<text transform="matrix(0.8403 0 8.403064e-03 1 79.3602 183.7597)" class="st8 st9 st27">T</text>
<text transform="matrix(0.8403 0 8.403064e-03 1 81.7201 183.7597)" class="st8 st9 st27">e</text>
<text transform="matrix(0.8403 0 8.403064e-03 1 84.3099 183.7597)" class="st8 st9 st27">c</text>
<text transform="matrix(0.8403 0 8.403064e-03 1 86.66 183.7597)" class="st8 st9 st27">h</text>
<text transform="matrix(0.8403 0 8.403064e-03 1 89.2499 183.7597)" class="st8 st9 st27">n</text>
<text transform="matrix(0.8403 0 8.403064e-03 1 91.85 183.7597)" class="st8 st9 st27">o</text>
<text transform="matrix(0.8403 0 8.403064e-03 1 94.4398 183.7597)" class="st8 st9 st27">l</text>
<text transform="matrix(0.8403 0 8.403064e-03 1 95.6102 183.7597)" class="st8 st9 st27">o</text>
<text transform="matrix(0.8403 0 8.403064e-03 1 98.2098 183.7597)" class="st8 st9 st27">g</text>
<text transform="matrix(0.8403 0 8.403064e-03 1 100.8002 183.7597)" class="st8 st9 st27">y C</text>
<text transform="matrix(0.8403 0 8.403064e-03 1 107.39 183.7597)" class="st8 st9 st27">o</text>
<text transform="matrix(0.8403 0 8.403064e-03 1 109.9799 183.7597)" class="st8 st9 st28">.</text>
<text transform="matrix(0.8403 0 8.403064e-03 1 112.0702 183.7597)" class="st8 st9 st28">,</text>
<text transform="matrix(0.8403 0 8.403064e-03 1 114.16 183.7597)" class="st8 st9 st27">L</text>
<text transform="matrix(0.8403 0 8.403064e-03 1 116.7499 183.7597)" class="st8 st9 st27">t</text>
<text transform="matrix(0.8403 0 8.403064e-03 1 118.16 183.7597)" class="st8 st9 st27">d</text>
<text transform="matrix(0.8403 0 8.403064e-03 1 120.7601 183.7597)" class="st8 st9 st28">.</text>
<path class="st8" d="M58.9,175.1c0.6,0,1,0.4,1,1s-0.4,1-1,1s-1-0.4-1-1S58.3,175.1,58.9,175.1 M43.6,176l2.4,2.4l2.3-2.4l-2.3-2.4
	L43.6,176z M67.6,176l2.4,2.4l2.3-2.4l-2.4-2.4L67.6,176z M60,175.8h6.9l2.8-2.8l0.2-0.2l0.2,0.2l2.9,2.8l0.2,0.2l-0.2,0.2l-2.8,2.8
	l-0.2,0.2l-0.2-0.2l-2.8-2.8h-7L60,175.8L60,175.8z M44.8,175.8h2.4v0.2l0,0v0.1h-2.6V176l0,0v-0.1L44.8,175.8z M69.8,177.1v-1h-1.1
	V176l0,0v-0.2h1.1v-1.1h0.3v1.1h1.1v0.2l0,0v0.2h-1.1v1.1h-0.3L69.8,177.1z M61.1,178.1L61.1,178.1L61.1,178.1L61.1,178.1
	L61.1,178.1c-1.2,1.2-3.1,1.2-4.2,0.1c-0.6-0.5-0.9-1.3-0.9-2.1h-7l-2.8,2.8l-0.2,0.2l-0.2-0.2l-2.8-2.8l-0.2-0.2l0.2-0.2l2.8-2.8
	l0.2-0.2l0.2,0.2l2.8,2.8h6.9c0.2-1.6,1.7-2.8,3.3-2.6c0.7,0.1,1.3,0.4,1.8,0.9l0,0v0.1l0,0l0,0.1l-0.5,0.4v-0.1l0,0l0,0
	c-0.9-0.9-2.4-0.9-3.4,0c-0.4,0.4-0.7,1.1-0.7,1.7c0,0.6,0.3,1.2,0.7,1.7c0.4,0.5,1.1,0.7,1.7,0.7c0.6,0,1.2-0.3,1.7-0.7l0,0l0,0
	L61.1,178.1z"/>
<path class="st6" d="M76.5,145.5c0.8,0,1.5,0.3,2,0.9h1.8c-0.6-1.5-2.1-2.6-3.8-2.6c-2.3,0-4.2,2.2-4.2,4.9s1.9,4.9,4.2,4.9
	c1.6,0,3-1,3.7-2.5h-1.9c-0.5,0.5-1.1,0.8-1.8,0.8c-1.8-0.2-3-1.9-2.7-3.6C73.9,146.9,75.1,145.7,76.5,145.5z"/>
<path class="st29" d="M76.5,145.5c0.8,0,1.5,0.3,2,0.9h1.8c-0.6-1.5-2.1-2.6-3.8-2.6c-2.3,0-4.2,2.2-4.2,4.9s1.9,4.9,4.2,4.9
	c1.6,0,3-1,3.7-2.5h-1.9c-0.5,0.5-1.1,0.8-1.8,0.8c-1.8-0.2-3-1.9-2.7-3.6C73.9,146.9,75.1,145.7,76.5,145.5z"/>
<path class="st6" d="M61.1,138.4h7.4v3.6H63v4.6h5c0.8-4.5,4.4-7.9,8.5-7.9c3.4,0.1,6.4,2.2,7.7,5.4h-3.7c-1-1.2-2.5-1.9-4-1.9
	c-3.2,0-5.7,2.9-5.7,6.5s2.6,6.6,5.7,6.6c1.4,0,2.8-0.6,3.8-1.7h3.8c-1.3,3-4.3,5-7.6,5.1c-4.4,0-8-3.7-8.6-8.4H63v8.2h-3.1V140
	C59.8,139.2,60.3,138.5,61.1,138.4z"/>
<path class="st29" d="M61.1,138.4h7.4v3.6H63v4.6h5c0.8-4.5,4.4-7.9,8.5-7.9c3.4,0.1,6.4,2.2,7.7,5.4h-3.7c-1-1.2-2.5-1.9-4-1.9
	c-3.2,0-5.7,2.9-5.7,6.5s2.6,6.6,5.7,6.6c1.4,0,2.8-0.6,3.8-1.7h3.8c-1.3,3-4.3,5-7.6,5.1c-4.4,0-8-3.7-8.6-8.4H63v8.2h-3.1V140
	C59.8,139.2,60.3,138.5,61.1,138.4z"/>
</svg>
