<svg xmlns="http://www.w3.org/2000/svg" viewBox="0 0 56.7 76.97"><defs><style>.cls-1{fill:#a71f24;}.cls-2,.cls-4,.cls-5{fill:none;}.cls-3{fill:#fff;}.cls-4{stroke:#fff;stroke-linecap:round;}.cls-4,.cls-5{stroke-miterlimit:10;}.cls-5{stroke:#231815;}.cls-6{fill:#231815;}</style></defs><g id="图层_2" data-name="图层 2"><g id="图层_1-2" data-name="图层 1"><circle class="cls-1" cx="28.35" cy="28.35" r="28.35"/><circle class="cls-2" cx="28.35" cy="28.35" r="26.33"/><circle class="cls-3" cx="28.35" cy="28.35" r="7.09"/><line class="cls-4" x1="41.52" y1="51.16" x2="35.44" y2="40.63"/><line class="cls-4" x1="54.69" y1="28.35" x2="42.52" y2="28.35"/><line class="cls-4" x1="41.52" y1="5.55" x2="35.44" y2="16.08"/><line class="cls-4" x1="15.18" y1="5.55" x2="21.26" y2="16.08"/><line class="cls-4" x1="2.02" y1="28.35" x2="14.18" y2="28.35"/><line class="cls-4" x1="15.18" y1="51.16" x2="21.26" y2="40.63"/><line class="cls-4" x1="51.16" y1="41.52" x2="47.55" y2="39.44"/><line class="cls-4" x1="51.16" y1="15.18" x2="47.55" y2="17.27"/><line class="cls-4" x1="28.35" y1="2.01" x2="28.35" y2="6.18"/><line class="cls-4" x1="5.54" y1="15.18" x2="9.15" y2="17.27"/><line class="cls-4" x1="5.54" y1="41.52" x2="9.15" y2="39.44"/><line class="cls-4" x1="28.35" y1="54.69" x2="28.35" y2="50.52"/><line class="cls-5" x1="28.35" y1="59.34" x2="28.35" y2="69.91"/><polygon class="cls-6" points="28.35 76.97 24.29 67.02 28.35 69.38 32.42 67.02 28.35 76.97"/></g></g></svg>